<svg viewBox="0 0 345 250" version="1.1" xmlns="http://www.w3.org/2000/svg" xmlns:xlink="http://www.w3.org/1999/xlink" style="fill-rule:evenodd;">
  <g transform="matrix(1,0,0,1,-21,-8.04761)">
    <path d="M259.418,116.502C261.493,116.209 262.537,115.681 262.537,115.681C262.603,115.185 261.371,114.621 261.371,114.621C247.748,107.815 256.05,97.836 256.05,97.836C256.623,98.396 257.985,99.447 257.985,99.447C259.374,93.616 264.03,91.839 264.03,91.839C264.58,92.247 266.468,93.048 266.468,93.048C267.16,91.822 268.059,90.462 268.059,90.462C269.756,91.011 271.716,92.275 271.716,92.275C272.49,90.844 272.301,87.263 272.301,87.263C273.149,87.635 274.738,88.471 274.738,88.471C275.753,87.21 275.27,83.915 275.27,83.915C275.998,83.991 277.708,85.123 277.708,85.123C279.089,83.416 278.24,80.566 278.24,80.566L279.512,80.715C278.83,79.468 274.69,77.843 274.69,77.843C281.036,75.958 287.41,79.328 287.41,79.328L288.788,78.565C290.468,78.887 291.226,79.773 291.226,79.773L292.551,79.466C294.848,80.409 298.539,83.398 298.539,83.398L299.865,83.091C303.667,84.991 304.581,86.874 304.581,86.874L305.906,86.567C308.961,90.106 308.818,94.758 308.818,94.758L310.143,94.451C311.504,97.245 309.452,100.374 309.452,100.374L312.049,100.215C309.661,108.385 304.062,109.759 304.465,109.953C304.869,110.147 306.956,110.705 306.956,110.705C304.988,113.624 297.201,116.956 297.201,116.956C298.873,117.57 299.639,118.164 299.639,118.164C298.303,118.356 297.032,118.683 295.663,119.086C287.547,121.472 282.57,120.79 282.57,120.79C281.899,121.354 281.762,122.936 282.304,123.069C282.847,123.201 276.194,122.978 270.909,121.277C265.625,119.575 265.028,116.434 265.028,116.434C262.807,117.148 261.453,117.45 260.67,117.577C267.204,123.326 267,127 267,127C268.389,127.47 271.851,127.433 272,127C272.148,126.569 273.337,131.697 271.034,135.937C272.03,136.068 273.137,136.113 273.81,135.986C273.81,135.986 274.14,132.072 282.133,127.057C283.481,126.211 284.634,125.407 285.521,124.503C285.521,124.503 286.514,125.296 287.224,126.762C287.224,126.762 297.114,122.357 304.042,122.055C304.042,122.055 304.485,123.803 304.754,124.174C305.023,124.546 309.956,120.979 328.226,122.422L326.957,124.263C326.957,124.263 334.362,123.981 339.831,126.071L338.701,126.922C338.701,126.922 348.67,128.635 355.119,132.257L353.99,133.108C353.99,133.108 357.676,134.513 360.365,138.043L359.236,138.894C359.236,138.894 364.285,142.767 365.473,144.819L364.343,145.67C364.343,145.67 365.959,146.572 366.046,147.929L363.926,148.641C363.926,148.641 368.826,154.629 362.535,158.544C362.535,158.544 360.554,154.875 358.14,153.888L358.001,154.878C358.001,154.878 352.232,153.142 348.098,153.487C348.098,153.487 349.899,155.182 349.801,155.746C349.801,155.746 342.948,154.104 339.898,154.355C339.898,154.355 341.111,155.847 341.6,156.614C341.6,156.614 334.034,155.076 330.707,155.084C330.707,155.084 332.699,157.014 333.261,158.472C333.261,158.472 330.041,158.6 327.18,158.628C327.18,158.628 328.21,160.324 328.883,160.887C328.883,160.887 323.428,163.605 310.501,162.345C310.501,162.345 312.253,163.754 313.243,164.393C313.243,164.393 288.998,166.577 279.368,153.933C279.368,153.933 278.621,152.829 277.554,152.669C277.554,153.217 277.374,153.7 277,153.974C275.495,155.075 272.69,156.823 272.69,160L272.69,216C272.69,222.521 265.69,222 265.69,222L247,222C247,222 240,222.521 240,216L240,167L240.001,166.991C240.022,166.816 240.254,164 234,164C228.742,164 228.069,164.772 228,165.51L228,222.957C228.14,225.08 229.294,230 237,230L255,230C255,230 268,229.799 268,238L268,258L234,258L234,250L250,250L250,238L228,238C216.996,238 215.247,233.147 215.012,231L215,231L215,230.882C214.952,230.341 215,230 215,230L215,223L197,223L197,258L163,258L163,250L181,250L181,223L146,223L146,258L112,258L112,250L130,250L130,223L95,223L95,258L61,258L61,250L79,250L79,199.462L70,196L59.921,199.877L59.921,232L47.921,232L47.921,214L33,214L33,232L21,232L21,189L59.921,153.985L229,153.985C229,153.985 248,153.118 248,167L248,212.122C248.261,213.596 249.706,216 256.345,216C262.984,216 264.428,213.596 264.69,212.122L264.69,160C264.69,160 264.129,153.746 273,150C273.501,149.788 273.964,149.68 274.388,149.653C272.358,148.735 269.633,147.05 268.598,144.342C267.896,142.508 267.79,140.603 267.919,139.016C265.18,140.643 262,141 262,141C265.993,144.14 266,145 266,145C265.543,146.147 264,146 264,146C262.795,143.972 261,143 261,143C259.909,142.993 259,144 259,144C247.706,155.181 224,149.647 224,149.647C225.069,149.152 227,148 227,148C214.023,147.45 209,144 209,144C209.744,143.536 211,142 211,142C208.171,141.574 205,141 205,141C205.759,139.634 208,138 208,138C204.707,137.529 197,138 197,138C197.591,137.308 199,136 199,136C196.014,135.327 189,136 189,136C188.981,135.428 191,134 191,134C186.955,133.084 181,134 181,134L181,133C178.472,133.642 176,137 176,137C170.315,132.248 176,127 176,127L174,126C174.274,124.669 176,124 176,124L175,123C176.462,121.133 182,118 182,118L181,117C184.154,113.879 188,113 188,113L187,112C193.89,109.31 204,109 204,109L203,108C208.706,106.691 216,108 216,108L215,106C233.292,107.113 237.682,111.33 238,111C238.318,110.67 239,109 239,109C245.818,110.262 255,116 255,116C255.907,114.648 257,114 257,114C257.63,114.852 258.453,115.66 259.418,116.502ZM40,194C42.208,194 44,195.12 44,196.5C44,197.88 42.208,199 40,199C37.792,199 36,197.88 36,196.5C36,195.12 37.792,194 40,194ZM335.648,140.477C350.513,142.788 357.588,149.701 359.317,151.068C362.5,153.584 359.752,150.734 359.752,150.734C353.189,144.673 345.505,141.272 337.536,139.642C342.081,139.269 344.644,137.95 344.644,137.95C346.951,136.504 344.365,137.726 344.365,137.726C340.459,139.18 335.036,139.086 334.194,139.062C327.85,138.15 321.402,138.266 315.261,138.97C320.236,136.951 324.782,133.112 324.782,133.112C326.814,130.781 324.399,132.935 324.399,132.935C321.254,135.667 313.632,138.739 311.907,139.415C307.313,140.106 302.942,141.094 298.977,142.183C300.1,141.056 302.256,138.979 304.641,136.579C308.024,133.176 308.823,131.211 308.823,131.211C309.886,129.128 309.254,129.66 308.479,131.009C307.704,132.357 306.067,134.113 304.701,135.473C303.336,136.832 302.394,137.817 299.557,140.181C297.638,141.78 297.092,142.478 296.939,142.762C291.796,144.268 287.449,145.897 284.347,147.168C286.934,139.706 286.278,136.539 286.162,135.684C286.043,134.805 285.448,134.379 285.693,135.745C285.937,137.111 285.394,141.032 283.985,144.492C283.182,146.464 283.015,147.337 283.019,147.723C280.594,148.753 279.221,149.439 279.221,149.439C277.389,151.152 280.132,150.455 280.132,150.455C281.532,149.861 282.91,149.295 284.268,148.758C285.269,148.863 286.918,149.029 289.435,149.265C294.267,149.717 295.378,149.747 303.578,152.494C311.778,155.241 314.476,154.995 314.476,154.995C318.263,154.992 314.42,154.523 314.42,154.523C310.564,153.957 309.501,153.81 303.911,151.673C298.322,149.535 296.415,148.992 291.803,148.292C289.108,147.882 287.374,147.87 286.398,147.931C290.674,146.303 294.729,144.959 298.569,143.863C299.43,144.052 300.552,144.169 302.481,144.458C305.243,144.872 306.957,145.326 309.508,146.144C312.058,146.962 314.73,148.695 316.411,149.981C318.091,151.267 321.614,153.118 321.614,153.118C325.384,154.384 322.579,153.221 321.74,152.795C320.901,152.369 319.535,151.715 316.723,149.436C313.91,147.156 312.218,146.395 309.823,145.351C307.428,144.307 304.288,143.717 302.716,143.437C302.068,143.322 301.434,143.256 300.913,143.218C304.917,142.157 308.682,141.369 312.214,140.813C313.48,141.464 316.552,142.275 317.426,142.574C318.49,142.938 320.653,143.424 323.257,145.426C325.86,147.429 327.468,148.116 327.468,148.116C330.571,149.197 328.01,148.005 327.489,147.747C326.967,147.489 325.222,146.442 323.545,144.909C321.868,143.375 319.195,142.324 317.608,141.701C316.658,141.328 315.189,140.85 314.164,140.527C321.712,139.496 328.173,139.535 333.651,140.201C337.683,142.346 343.178,147.412 343.178,147.412C345.658,149.862 343.229,147.047 343.229,147.047C340.251,143.841 337.054,141.462 335.648,140.477ZM205.112,122.918C190.07,123.167 182.114,129.043 180.214,130.16C176.716,132.216 179.829,129.769 179.829,129.769C187.162,124.666 195.239,122.352 203.357,121.831C198.906,120.838 196.548,119.18 196.548,119.18C194.462,117.431 196.855,118.996 196.855,118.996C200.525,120.972 205.91,121.624 206.747,121.715C213.156,121.683 219.527,122.682 225.513,124.222C220.863,121.54 216.886,117.114 216.886,117.114C215.193,114.526 217.29,116.991 217.29,116.991C220.03,120.128 227.159,124.218 228.774,125.123C233.23,126.439 237.424,128.017 241.203,129.64C240.245,128.369 238.395,126.016 236.361,123.312C233.477,119.476 232.955,117.42 232.955,117.42C232.188,115.211 232.741,115.825 233.324,117.267C233.907,118.709 235.287,120.673 236.453,122.207C237.619,123.741 238.417,124.846 240.902,127.577C242.584,129.424 243.029,130.19 243.142,130.493C248.029,132.691 252.112,134.9 255.01,136.585C253.471,128.839 254.556,125.791 254.788,124.961C255.027,124.106 255.674,123.766 255.245,125.086C254.815,126.405 254.815,130.363 255.736,133.984C256.26,136.048 256.306,136.935 256.249,137.317C258.51,138.67 259.776,139.538 259.776,139.538C261.355,141.486 258.734,140.42 258.734,140.42C257.429,139.639 256.141,138.89 254.87,138.171C253.864,138.137 252.208,138.075 249.682,137.963C244.834,137.749 243.729,137.626 235.23,139.221C226.731,140.817 224.092,140.203 224.092,140.203C220.342,139.681 224.212,139.743 224.212,139.743C228.109,139.712 229.183,139.712 235.013,138.362C240.842,137.012 242.806,136.736 247.47,136.675C250.196,136.639 251.915,136.865 252.874,137.059C248.862,134.86 245.03,132.972 241.376,131.36C240.497,131.429 239.37,131.391 237.419,131.412C234.627,131.443 232.866,131.658 230.228,132.118C227.589,132.578 224.705,133.928 222.864,134.971C221.023,136.015 217.279,137.365 217.279,137.365C213.371,138.101 216.309,137.334 217.199,137.027C218.088,136.72 219.53,136.26 222.629,134.388C225.728,132.517 227.508,131.995 230.024,131.289C232.54,130.584 235.731,130.43 237.327,130.369C237.984,130.344 238.621,130.365 239.143,130.399C235.322,128.798 231.701,127.502 228.278,126.466C226.935,126.937 223.78,127.319 222.875,127.495C221.77,127.71 219.561,127.894 216.707,129.52C213.854,131.147 212.166,131.607 212.166,131.607C208.944,132.251 211.645,131.423 212.197,131.239C212.749,131.054 214.621,130.257 216.493,128.968C218.364,127.679 221.156,127.004 222.813,126.605C223.806,126.367 225.326,126.095 226.386,125.915C219.051,123.858 212.646,123.011 207.128,122.918C202.84,124.49 196.702,128.753 196.702,128.753C193.91,130.84 196.702,128.385 196.702,128.385C200.091,125.618 203.585,123.7 205.112,122.918ZM291.055,93.198C291.538,86.308 284.486,81.81 283.166,80.778C280.737,78.879 283.684,80.661 283.684,80.661C289.785,84.76 292.299,88.784 292.53,92.56C294.031,90.68 296.265,89.851 296.265,89.851C298.6,89.16 296.482,90.018 296.482,90.018C293.773,91.397 292.658,93.754 292.497,94.122C292.198,97.047 290.588,99.801 288.311,102.3C291.97,100.579 297.811,99.425 297.811,99.425C301.194,99.038 297.946,99.627 297.946,99.627C293.809,100.41 288.229,103.051 286.991,103.652C285.08,105.487 282.849,107.164 280.584,108.644C282.252,108.397 285.344,107.903 288.891,107.378C293.924,106.633 296.567,106.701 296.567,106.701C299.418,106.679 298.608,106.84 296.742,106.891C294.877,106.943 292.305,107.28 290.292,107.584C288.278,107.887 286.831,108.087 283.225,108.814C280.785,109.306 279.787,109.395 279.397,109.401C276.341,111.302 273.313,112.834 271.015,113.904C280.951,114.353 284.769,115.3 285.814,115.529C286.888,115.765 287.286,116.11 285.631,115.718C283.975,115.327 278.94,114.739 274.286,114.621C271.633,114.554 270.501,114.443 270.019,114.36C268.177,115.189 267.006,115.637 267.006,115.637C264.444,116.068 265.939,115.032 265.939,115.032C267.002,114.553 268.024,114.077 269.005,113.605C269.102,113.151 269.269,112.406 269.545,111.272C270.076,109.095 270.291,108.61 268.714,104.5C267.136,100.391 268.057,99.28 268.057,99.28C268.922,97.648 268.636,99.403 268.636,99.403C268.468,101.183 268.411,101.672 269.818,104.529C271.225,107.385 271.472,108.321 271.302,110.455C271.203,111.703 270.824,112.452 270.526,112.86C273.536,111.359 276.142,109.893 278.387,108.468C278.346,108.057 278.455,107.549 278.531,106.657C278.641,105.38 278.461,104.546 278.016,103.276C277.571,102.005 276.007,100.49 274.778,99.497C273.549,98.503 272.03,96.597 272.03,96.597C271.301,94.707 272.121,96.159 272.464,96.61C272.807,97.061 273.316,97.787 275.532,99.477C277.748,101.167 278.317,102.055 279.081,103.306C279.844,104.557 279.87,106.034 279.863,106.77C279.86,107.073 279.799,107.36 279.728,107.593C281.968,106.09 283.81,104.633 285.308,103.227C284.782,102.545 284.463,101.051 284.287,100.612C284.073,100.077 283.956,99.043 282.039,97.501C280.122,95.959 279.627,95.122 279.627,95.122C278.978,93.559 279.888,94.912 280.093,95.191C280.298,95.47 281.213,96.441 282.753,97.485C284.293,98.529 285.003,99.902 285.422,100.716C285.673,101.204 285.938,101.937 286.111,102.446C289.117,99.41 290.536,96.617 290.947,94.117C289.176,91.93 284.079,88.5 284.079,88.5C281.573,86.918 284.547,88.554 284.547,88.554C287.887,90.51 290.141,92.386 291.055,93.198ZM315.187,92.447C315.187,92.447 314.04,92.562 312.546,91.909C312.546,91.909 311.922,92.373 312.364,93.142C312.364,93.142 312.819,93.596 315.885,93.859C315.885,93.859 313.922,96.592 315.328,99.674C316.733,102.755 319.883,105.082 319.708,104.8C319.534,104.518 320.74,103.282 321.48,103.044C321.48,103.044 323.466,105.2 329.221,105.89C330.192,106.006 331.06,106.151 331.862,106.427C331.862,106.427 331.909,105.7 331.519,104.664C331.519,104.664 337.79,104.482 340.87,102.756C340.87,102.756 340.233,101.631 340.172,101.344C340.111,101.057 343.885,101.752 350.951,95.916L349.544,95.206C349.544,95.206 352.817,93.338 354.15,90.639L353.269,90.46C353.269,90.46 356.688,86.744 357.713,82.896L356.833,82.717C356.833,82.717 357.733,80.899 357.208,78.135L356.328,77.956C356.328,77.956 356.642,74.348 356.177,72.844L355.297,72.665C355.297,72.665 355.556,71.704 354.953,70.901L353.718,71.073C353.718,71.073 352.971,66.291 348.457,65.768C348.457,65.768 349.348,68.418 348.79,69.646L348.264,69.116C348.264,69.116 346.636,71.694 344.721,72.629C344.721,72.629 344.685,71.162 344.378,70.865C344.378,70.865 342.247,73.687 340.835,74.379C340.835,74.379 340.646,73.19 340.491,72.615C340.491,72.615 338.009,75.572 336.594,76.479C336.594,76.479 336.528,74.825 336.079,73.834C336.079,73.834 334.653,74.643 333.427,75.411C333.427,75.411 333.063,74.155 333.083,73.647C333.083,73.647 329.488,73.582 324.602,77.849C324.602,77.849 324.68,76.56 324.798,75.922C324.798,75.922 313.488,81.314 315.37,91.214C315.37,91.214 315.577,92.067 315.187,92.447ZM248.457,99.671C248.457,99.671 249.549,100.506 251.908,101.185C251.908,101.185 252.034,101.844 250.666,101.936C250.666,101.936 249.65,101.859 246.065,99.917C246.065,99.917 244.979,102.637 239.886,103.255C234.794,103.872 228.714,102.924 229.229,102.899C229.744,102.873 229.894,101.427 229.382,100.805C229.382,100.805 224.745,100.559 217.788,97.014C216.614,96.416 215.517,95.902 214.337,95.5C214.337,95.5 215.135,95.098 216.76,94.834C216.76,94.834 210.265,90.496 208.983,87.533C208.983,87.533 210.975,87.392 211.375,87.287C211.775,87.182 206.929,84.981 206.173,77.227L208.504,77.818C208.504,77.818 207.182,74.652 208.901,72.376L210.051,72.881C210.051,72.881 210.726,68.675 214.113,66.022L215.263,66.527C215.263,66.527 216.418,64.992 220.2,63.94L221.35,64.445C221.35,64.445 225.218,62.396 227.467,61.945L228.617,62.45C228.617,62.45 229.459,61.785 231.04,61.785L232.16,62.708C232.16,62.708 238.53,60.78 243.967,63.569C243.967,63.569 239.927,64.315 239.091,65.318L240.272,65.404C240.272,65.404 239.009,67.818 239.967,69.591C239.967,69.591 241.715,68.868 242.39,68.925C242.39,68.925 241.381,71.804 242.084,73.112C242.084,73.112 243.672,72.635 244.507,72.447C244.507,72.447 243.716,75.633 244.171,77.052C244.171,77.052 246.169,76.255 247.805,76.054C247.805,76.054 248.386,77.431 248.802,78.652C248.802,78.652 250.655,78.259 251.225,77.987C251.225,77.987 255.145,80.387 255.398,85.867C255.398,85.867 256.817,85.158 257.434,84.753C257.434,84.753 263.246,95.154 249.699,98.92C249.699,98.92 248.482,99.213 248.457,99.671ZM345.553,83.467C350.75,78.05 350.477,72.137 350.563,70.877C350.721,68.558 350.905,70.949 350.905,70.949C350.992,76.233 349.348,80.298 346.746,83.427C348.845,82.39 350.553,82.441 350.553,82.441C352.212,82.636 350.541,82.647 350.541,82.647C348.201,82.887 345.951,84.434 345.606,84.679C343.353,86.948 340.57,88.656 337.639,89.942C340.698,89.731 344.435,90.683 344.435,90.683C346.396,91.461 344.357,90.89 344.357,90.89C341.735,90.188 337.058,90.523 336.009,90.61C333.739,91.477 331.422,92.113 329.23,92.58C330.238,92.918 332.132,93.516 334.275,94.236C337.314,95.258 338.581,96.165 338.581,96.165C340.015,97.068 339.496,96.936 338.531,96.376C337.566,95.816 336.044,95.259 334.823,94.855C333.603,94.45 332.739,94.145 330.422,93.569C328.854,93.179 328.293,92.929 328.095,92.809C325.207,93.359 322.598,93.622 320.684,93.746C325.305,97.315 326.524,99.313 326.879,99.835C327.244,100.372 327.194,100.78 326.652,99.929C326.11,99.078 324.027,96.978 321.796,95.381C320.524,94.47 320.041,94.016 319.861,93.793C318.348,93.869 317.443,93.854 317.443,93.854C315.858,93.375 317.348,93.02 317.348,93.02C318.221,92.976 319.071,92.921 319.9,92.855C320.274,92.52 320.893,91.971 321.847,91.143C323.677,89.553 324.133,89.23 326.305,85.398C328.476,81.565 329.734,80.964 329.734,80.964C331.338,79.924 329.934,81.25 329.934,81.25C328.569,82.636 328.189,83.013 326.834,85.777C325.479,88.542 324.928,89.378 323.308,91.049C322.362,92.026 321.634,92.51 321.192,92.744C323.77,92.501 326.121,92.156 328.264,91.728C328.539,91.383 328.958,91.007 329.638,90.31C330.611,89.313 331.122,88.581 331.814,87.409C332.507,86.238 332.819,84.508 332.922,83.308C333.025,82.108 333.641,80.077 333.641,80.077C334.638,78.313 334.001,79.752 333.847,80.227C333.694,80.703 333.425,81.453 333.312,83.535C333.199,85.617 332.842,86.519 332.322,87.777C331.802,89.036 330.753,90.238 330.22,90.831C330,91.076 329.763,91.288 329.56,91.453C331.756,90.96 333.721,90.376 335.479,89.723C335.707,89.001 336.623,87.69 336.852,87.279C337.13,86.777 337.816,85.903 337.971,84.037C338.126,82.172 338.482,81.335 338.482,81.335C339.284,79.861 338.764,81.249 338.665,81.541C338.566,81.833 338.323,82.914 338.338,84.255C338.353,85.596 337.719,86.935 337.341,87.729C337.116,88.204 336.72,88.883 336.439,89.351C340.12,87.865 342.835,86.064 344.838,84.175C345.53,81.834 345.462,77.416 345.462,77.416C345.353,75.328 345.656,77.611 345.656,77.611C345.911,80.27 345.682,82.515 345.553,83.467ZM226.451,74.544C227.204,68.269 234.386,65.444 235.762,64.744C238.296,63.457 235.313,64.55 235.313,64.55C229.063,67.18 226.085,70.362 225.221,73.716C224.184,71.767 222.299,70.637 222.299,70.637C220.298,69.613 222.072,70.75 222.072,70.75C224.294,72.457 224.898,74.767 224.981,75.125C224.747,77.806 225.732,80.559 227.368,83.198C224.343,81.02 219.238,78.974 219.238,78.974C216.234,78.042 219.081,79.133 219.081,79.133C222.702,80.55 227.313,83.886 228.333,84.641C229.75,86.619 231.486,88.511 233.286,90.232C231.815,89.722 229.093,88.745 225.962,87.661C221.521,86.123 219.11,85.728 219.11,85.728C216.525,85.216 217.233,85.5 218.918,85.869C220.603,86.237 222.879,86.984 224.655,87.604C226.431,88.224 227.711,88.654 230.859,89.929C232.989,90.792 233.88,91.045 234.234,91.118C236.68,93.353 239.164,95.253 241.066,96.611C231.966,95.3 228.335,95.491 227.347,95.517C226.33,95.543 225.909,95.785 227.48,95.719C229.051,95.653 233.725,95.994 237.972,96.691C240.392,97.088 241.439,97.184 241.891,97.193C243.42,98.256 244.406,98.86 244.406,98.86C246.658,99.689 245.479,98.5 245.479,98.5C244.597,97.886 243.752,97.283 242.942,96.689C242.933,96.265 242.911,95.566 242.855,94.499C242.75,92.451 242.639,91.978 244.782,88.557C246.925,85.136 246.281,83.979 246.281,83.979C245.779,82.363 245.734,83.989 245.734,83.989C245.579,85.618 245.546,86.068 243.774,88.392C242.002,90.716 241.616,91.515 241.401,93.462C241.276,94.6 241.49,95.339 241.69,95.757C239.216,93.888 237.104,92.122 235.312,90.453C235.42,90.091 235.409,89.616 235.494,88.801C235.616,87.635 235.923,86.916 236.547,85.851C237.171,84.786 238.853,83.695 240.141,83.014C241.429,82.333 243.138,80.882 243.138,80.882C244.126,79.309 243.131,80.473 242.742,80.819C242.352,81.165 241.765,81.729 239.46,82.866C237.155,84.002 236.485,84.702 235.575,85.695C234.665,86.687 234.387,88.01 234.265,88.673C234.215,88.946 234.221,89.214 234.246,89.436C232.472,87.698 231.051,86.071 229.934,84.548C230.53,84.027 231.078,82.739 231.313,82.375C231.601,81.931 231.886,81.022 233.893,79.967C235.9,78.913 236.495,78.246 236.495,78.246C237.354,76.952 236.294,78.011 236.059,78.227C235.825,78.442 234.826,79.157 233.247,79.83C231.669,80.502 230.786,81.613 230.265,82.273C229.952,82.667 229.585,83.281 229.34,83.709C227.136,80.461 226.33,77.706 226.39,75.388C228.376,73.729 233.598,71.526 233.598,71.526C236.147,70.537 233.163,71.494 233.163,71.494C229.792,72.675 227.421,73.972 226.451,74.544ZM322.049,73.553C322.049,73.553 323.2,73.943 325.485,73.976C325.485,73.976 325.718,74.425 324.479,74.755C324.479,74.755 323.533,74.896 319.898,74.192C319.898,74.192 319.384,76.356 314.819,77.781C310.254,79.207 304.505,79.698 304.974,79.58C305.442,79.463 305.323,78.395 304.743,78.047C304.743,78.047 300.443,78.763 293.428,77.558C292.245,77.354 291.147,77.197 289.992,77.135C289.992,77.135 290.654,76.692 292.098,76.19C292.098,76.19 285.367,74.325 283.664,72.443C283.664,72.443 285.468,71.957 285.816,71.805C286.165,71.652 281.326,71.005 279.257,65.579L281.501,65.554C281.501,65.554 279.725,63.534 280.9,61.567L282.045,61.708C282.045,61.708 281.917,58.556 284.555,55.996L285.701,56.137C285.701,56.137 286.488,54.812 289.773,53.327L290.918,53.468C290.918,53.468 294.105,51.25 296.089,50.492L297.235,50.633C297.235,50.633 297.889,49.993 299.34,49.688L300.532,50.135C300.532,50.135 306.037,47.521 311.522,48.477C311.522,48.477 307.946,49.792 307.357,50.674L308.456,50.508C308.456,50.508 307.725,52.487 308.919,53.575C308.919,53.575 310.395,52.719 311.024,52.63C311.024,52.63 310.61,54.893 311.487,55.698C311.487,55.698 312.86,55.049 313.593,54.752C313.593,54.752 313.432,57.194 314.102,58.126C314.102,58.126 315.794,57.168 317.26,56.709C317.26,56.709 318.038,57.586 318.637,58.383C318.637,58.383 320.267,57.743 320.742,57.438C320.742,57.438 324.766,58.407 325.971,62.296C325.971,62.296 327.147,61.513 327.642,61.103C327.642,61.103 334.822,67.456 323.056,72.774C323.056,72.774 321.992,73.22 322.049,73.553ZM297.392,59.741C296.97,55.086 303.06,51.672 304.199,50.904C306.297,49.49 303.752,50.851 303.752,50.851C298.483,53.946 296.314,56.807 296.117,59.383C294.819,58.183 292.888,57.734 292.888,57.734C290.869,57.384 292.7,57.859 292.7,57.859C295.042,58.657 296.007,60.201 296.146,60.442C296.407,62.413 297.8,64.202 299.77,65.782C296.607,64.801 291.558,64.315 291.558,64.315C288.636,64.225 291.442,64.459 291.442,64.459C295.017,64.779 299.841,66.288 300.911,66.633C302.563,67.782 304.492,68.807 306.45,69.696C305.009,69.613 302.337,69.436 299.271,69.261C294.923,69.012 292.639,69.193 292.639,69.193C290.176,69.324 290.876,69.391 292.487,69.331C294.099,69.271 296.321,69.369 298.061,69.472C299.802,69.575 301.052,69.637 304.169,69.946C306.277,70.156 307.139,70.165 307.477,70.15C310.119,71.284 312.736,72.17 314.722,72.78C306.138,73.592 302.838,74.43 301.936,74.639C301.008,74.854 300.664,75.109 302.095,74.758C303.525,74.408 307.875,73.752 311.897,73.434C314.189,73.252 315.166,73.119 315.583,73.038C317.175,73.508 318.187,73.752 318.187,73.752C320.402,73.913 319.109,73.286 319.109,73.286C318.19,73.015 317.307,72.745 316.458,72.474C316.375,72.171 316.23,71.673 315.99,70.917C315.53,69.466 315.344,69.147 316.704,66.276C318.064,63.404 317.268,62.697 317.268,62.697C316.52,61.633 316.768,62.81 316.768,62.81C316.914,64.01 316.964,64.34 315.75,66.351C314.536,68.363 314.323,69.012 314.472,70.452C314.558,71.294 314.886,71.784 315.144,72.046C312.542,71.18 310.289,70.318 308.349,69.464C308.384,69.183 308.289,68.844 308.223,68.242C308.127,67.38 308.282,66.805 308.666,65.919C309.049,65.034 310.4,63.925 311.461,63.187C312.522,62.45 313.833,61.078 313.833,61.078C314.461,59.757 313.754,60.785 313.458,61.109C313.162,61.433 312.723,61.951 310.809,63.212C308.896,64.473 308.405,65.105 307.746,65.994C307.086,66.883 307.066,67.887 307.072,68.387C307.075,68.593 307.128,68.784 307.189,68.939C305.253,68.032 303.66,67.137 302.364,66.258C302.819,65.768 303.093,64.737 303.245,64.43C303.43,64.056 303.53,63.348 305.185,62.203C306.84,61.058 307.268,60.464 307.268,60.464C307.827,59.369 307.042,60.335 306.865,60.535C306.688,60.735 305.898,61.441 304.568,62.229C303.239,63.016 302.626,63.985 302.264,64.559C302.048,64.903 301.819,65.415 301.671,65.77C299.071,63.861 297.843,62.037 297.486,60.36C299.015,58.784 303.416,56.194 303.416,56.194C305.58,54.992 303.012,56.255 303.012,56.255C300.128,57.754 298.181,59.143 297.392,59.741ZM248.383,63C248.383,63 247.392,63.839 245.223,64.549C245.223,64.549 245.124,65.197 246.396,65.263C246.396,65.263 247.336,65.168 250.609,63.197C250.609,63.197 251.692,65.843 256.435,66.353C261.178,66.862 266.793,65.818 266.314,65.803C265.835,65.788 265.656,64.373 266.114,63.754C266.114,63.754 270.41,63.425 276.767,59.818C277.839,59.21 278.843,58.686 279.927,58.269C279.927,58.269 279.175,57.89 277.66,57.662C277.66,57.662 283.566,53.287 284.674,50.358C284.674,50.358 282.821,50.256 282.447,50.161C282.073,50.066 286.509,47.817 286.994,40.201L284.848,40.824C284.848,40.824 285.987,37.694 284.328,35.495L283.275,36.011C283.275,36.011 282.532,31.9 279.316,29.363L278.262,29.879C278.262,29.879 277.148,28.397 273.61,27.437L272.556,27.953C272.556,27.953 268.91,26.017 266.81,25.617L265.757,26.133C265.757,26.133 264.957,25.497 263.491,25.527L262.477,26.453C262.477,26.453 256.513,24.682 251.545,27.519C251.545,27.519 255.315,28.174 256.118,29.142L255.025,29.249C255.025,29.249 256.264,31.592 255.424,33.348C255.424,33.348 253.782,32.672 253.158,32.741C253.158,32.741 254.174,35.545 253.557,36.84C253.557,36.84 252.071,36.402 251.291,36.233C251.291,36.233 252.114,39.342 251.731,40.742C251.731,40.742 249.855,39.998 248.331,39.832C248.331,39.832 247.83,41.193 247.478,42.398C247.478,42.398 245.748,42.047 245.211,41.792C245.211,41.792 241.64,44.219 241.558,49.596C241.558,49.596 240.221,48.928 239.637,48.542C239.637,48.542 234.534,58.849 247.209,62.287C247.209,62.287 248.346,62.552 248.383,63ZM268.104,37.951C267.23,31.812 260.488,29.177 259.191,28.517C256.804,27.303 259.603,28.318 259.603,28.318C265.475,30.779 268.327,33.844 269.222,37.116C270.13,35.185 271.848,34.042 271.848,34.042C273.676,33.001 272.061,34.148 272.061,34.148C270.048,35.863 269.551,38.14 269.484,38.493C269.776,41.116 268.938,43.834 267.493,46.452C270.24,44.26 274.92,42.158 274.92,42.158C277.681,41.189 275.07,42.311 275.07,42.311C271.75,43.768 267.564,47.126 266.638,47.885C265.378,49.852 263.82,51.739 262.197,53.461C263.549,52.933 266.047,51.923 268.922,50.802C273,49.211 275.226,48.778 275.226,48.778C277.611,48.228 276.962,48.52 275.409,48.912C273.856,49.305 271.764,50.08 270.133,50.722C268.503,51.363 267.327,51.808 264.441,53.118C262.488,54.004 261.669,54.268 261.343,54.346C259.135,56.584 256.882,58.493 255.156,59.861C263.563,58.404 266.938,58.524 267.856,58.531C268.799,58.537 269.197,58.767 267.737,58.731C266.278,58.696 261.951,59.118 258.029,59.881C255.794,60.316 254.826,60.429 254.406,60.447C253.017,61.518 252.119,62.129 252.119,62.129C250.052,62.984 251.113,61.796 251.113,61.796C251.915,61.178 252.682,60.57 253.417,59.973C253.414,59.556 253.415,58.871 253.436,57.824C253.477,55.814 253.568,55.348 251.484,52.034C249.4,48.72 249.965,47.573 249.965,47.573C250.387,45.98 250.473,47.573 250.473,47.573C250.662,49.167 250.705,49.608 252.414,51.853C254.123,54.099 254.503,54.875 254.757,56.78C254.905,57.893 254.727,58.622 254.553,59.036C256.796,57.157 258.707,55.385 260.324,53.715C260.213,53.362 260.21,52.896 260.109,52.099C259.963,50.958 259.658,50.259 259.05,49.226C258.441,48.194 256.85,47.155 255.636,46.512C254.422,45.869 252.796,44.478 252.796,44.478C251.835,42.955 252.791,44.077 253.162,44.409C253.533,44.741 254.094,45.283 256.264,46.354C258.434,47.425 259.075,48.099 259.947,49.055C260.819,50.011 261.115,51.302 261.245,51.95C261.299,52.217 261.301,52.48 261.285,52.697C262.882,50.961 264.155,49.338 265.15,47.825C264.582,47.324 264.038,46.072 263.809,45.72C263.53,45.29 263.241,44.404 261.349,43.408C259.457,42.411 258.886,41.769 258.886,41.769C258.053,40.517 259.067,41.535 259.29,41.742C259.514,41.949 260.461,42.631 261.944,43.261C263.428,43.89 264.277,44.963 264.78,45.6C265.081,45.981 265.439,46.575 265.677,46.991C267.633,43.765 268.303,41.049 268.184,38.777C266.294,37.187 261.388,35.126 261.388,35.126C258.995,34.203 261.791,35.086 261.791,35.086C264.951,36.181 267.187,37.408 268.104,37.951ZM320.057,53.429C320.057,53.429 319.214,53.806 317.623,53.916C317.623,53.916 317.412,54.312 318.237,54.553C318.237,54.553 318.878,54.64 321.482,53.904C321.482,53.904 321.601,55.753 324.617,56.821C327.633,57.889 331.573,58.109 331.261,58.024C330.948,57.939 331.148,57.013 331.59,56.692C331.59,56.692 334.499,57.158 339.506,55.868C340.351,55.65 341.131,55.476 341.94,55.381C341.94,55.381 341.529,55.022 340.581,54.64C340.581,54.64 345.463,52.791 346.853,51.106C346.853,51.106 345.653,50.751 345.428,50.632C345.202,50.513 348.636,49.782 350.67,45.025L349.113,45.084C349.113,45.084 350.569,43.277 349.969,41.621L349.158,41.783C349.158,41.783 349.593,39.058 348.041,36.943L347.229,37.105C347.229,37.105 346.827,35.989 344.708,34.824L343.897,34.986C343.897,34.986 341.926,33.185 340.63,32.601L339.819,32.764C339.819,32.764 339.434,32.235 338.459,32.023L337.582,32.452C337.582,32.452 334.044,30.391 330.127,31.411C330.127,31.411 332.468,32.419 332.78,33.159L332.034,33.055C332.034,33.055 332.325,34.737 331.376,35.719C331.376,35.719 330.444,35.033 330.017,34.978C330.017,34.978 330.056,36.917 329.358,37.642C329.358,37.642 328.475,37.131 327.999,36.901C327.999,36.901 327.842,39.003 327.274,39.831C327.274,39.831 326.204,39.064 325.235,38.72C325.235,38.72 324.599,39.505 324.095,40.214C324.095,40.214 323.032,39.72 322.735,39.473C322.735,39.473 319.833,40.452 318.568,43.852C318.568,43.852 317.837,43.218 317.538,42.881C317.538,42.881 311.851,48.62 319.443,52.792C319.443,52.792 320.134,53.139 320.057,53.429ZM338.709,40.631C339.513,36.599 335.656,33.868 334.949,33.245C333.647,32.1 335.266,33.183 335.266,33.183C338.587,35.668 339.78,38.06 339.634,40.277C340.668,39.195 342.059,38.739 342.059,38.739C343.5,38.365 342.176,38.84 342.176,38.84C340.461,39.612 339.621,40.978 339.498,41.192C339.1,42.902 337.935,44.496 336.393,45.93C338.699,44.97 342.26,44.372 342.26,44.372C344.301,44.19 342.325,44.492 342.325,44.492C339.806,44.895 336.288,46.369 335.506,46.705C334.232,47.755 332.779,48.708 331.321,49.546C332.331,49.423 334.207,49.175 336.357,48.914C339.406,48.545 340.973,48.62 340.973,48.62C342.671,48.646 342.177,48.729 341.064,48.734C339.95,48.739 338.395,48.903 337.175,49.054C335.954,49.205 335.078,49.302 332.879,49.68C331.391,49.936 330.79,49.975 330.557,49.973C328.597,51.047 326.681,51.904 325.233,52.501C331.11,52.897 333.31,53.503 333.914,53.651C334.536,53.804 334.747,54.012 333.791,53.76C332.836,53.508 329.885,53.096 327.125,52.965C325.552,52.89 324.887,52.81 324.607,52.755C323.449,53.216 322.719,53.463 322.719,53.463C321.162,53.681 322.13,53.094 322.13,53.094C322.798,52.828 323.441,52.562 324.061,52.299C324.152,52.034 324.307,51.599 324.557,50.938C325.036,49.669 325.201,49.388 324.571,46.958C323.941,44.528 324.572,43.889 324.572,43.889C325.209,42.944 324.907,43.968 324.907,43.968C324.674,45.01 324.603,45.296 325.226,46.989C325.848,48.683 325.925,49.234 325.663,50.483C325.511,51.213 325.229,51.647 325.021,51.883C326.924,51.043 328.584,50.218 330.027,49.413C330.033,49.171 330.136,48.875 330.249,48.353C330.41,47.606 330.365,47.115 330.196,46.364C330.027,45.613 329.21,44.705 328.554,44.106C327.897,43.507 327.137,42.369 327.137,42.369C326.845,41.251 327.224,42.114 327.394,42.383C327.564,42.652 327.812,43.084 329.004,44.104C330.195,45.124 330.467,45.653 330.827,46.396C331.187,47.14 331.092,48.006 331.032,48.437C331.008,48.615 330.95,48.782 330.89,48.918C332.335,48.067 333.54,47.237 334.538,46.433C334.275,46.026 334.198,45.146 334.126,44.887C334.039,44.57 334.047,43.962 333.023,43.033C331.998,42.104 331.766,41.606 331.766,41.606C331.498,40.681 331.938,41.486 332.039,41.653C332.14,41.819 332.611,42.401 333.449,43.033C334.286,43.666 334.606,44.48 334.794,44.963C334.907,45.252 335.009,45.685 335.073,45.986C337.09,44.246 338.143,42.628 338.576,41.168C337.686,39.862 334.912,37.784 334.912,37.784C333.54,36.823 335.186,37.822 335.186,37.822C337.026,39.013 338.226,40.143 338.709,40.631ZM248.044,27.78C248.044,27.78 248.833,28.109 250.33,28.194C250.33,28.194 250.524,28.544 249.743,28.765C249.743,28.765 249.138,28.848 246.695,28.213C246.695,28.213 246.558,29.858 243.703,30.83C240.848,31.803 237.132,32.028 237.428,31.951C237.724,31.873 237.548,31.051 237.136,30.769C237.136,30.769 234.389,31.206 229.691,30.097C228.898,29.91 228.165,29.761 227.404,29.683C227.404,29.683 227.796,29.361 228.695,29.014C228.695,29.014 224.121,27.407 222.835,25.92C222.835,25.92 223.97,25.595 224.184,25.487C224.398,25.38 221.173,24.757 219.322,20.543L220.787,20.583C220.787,20.583 219.441,18.988 220.028,17.511L220.79,17.649C220.79,17.649 220.417,15.23 221.908,13.337L222.67,13.475C222.67,13.475 223.064,12.48 225.076,11.428L225.838,11.566C225.838,11.566 227.719,9.95 228.947,9.421L229.709,9.559C229.709,9.559 230.079,9.086 231,8.89L231.82,9.265C231.82,9.265 235.181,7.406 238.857,8.283C238.857,8.283 236.638,9.197 236.334,9.857L237.038,9.759C237.038,9.759 236.741,11.256 237.622,12.122C237.622,12.122 238.509,11.505 238.912,11.453C238.912,11.453 238.849,13.177 239.497,13.816C239.497,13.816 240.335,13.355 240.787,13.147C240.787,13.147 240.906,15.014 241.43,15.746C241.43,15.746 242.449,15.056 243.365,14.743C243.365,14.743 243.955,15.436 244.42,16.063C244.42,16.063 245.427,15.615 245.71,15.393C245.71,15.393 248.431,16.242 249.576,19.254C249.576,19.254 250.274,18.685 250.56,18.384C250.56,18.384 255.839,23.442 248.631,27.209C248.631,27.209 247.976,27.523 248.044,27.78ZM230.648,16.545C229.945,12.966 233.615,10.509 234.29,9.95C235.532,8.922 233.992,9.898 233.992,9.898C230.83,12.131 229.674,14.268 229.781,16.237C228.822,15.283 227.518,14.888 227.518,14.888C226.165,14.567 227.406,14.979 227.406,14.979C229.011,15.652 229.784,16.861 229.898,17.05C230.249,18.567 231.324,19.975 232.758,21.238C230.599,20.403 227.252,19.897 227.252,19.897C225.332,19.752 227.189,20.005 227.189,20.005C229.557,20.344 232.851,21.627 233.583,21.92C234.768,22.844 236.124,23.68 237.487,24.414C236.536,24.312 234.772,24.106 232.751,23.891C229.884,23.586 228.407,23.665 228.407,23.665C226.807,23.7 227.271,23.771 228.32,23.767C229.369,23.763 230.831,23.896 231.979,24.021C233.127,24.146 233.951,24.226 236.017,24.545C237.415,24.761 237.981,24.791 238.2,24.788C240.032,25.727 241.825,26.475 243.18,26.994C237.64,27.391 235.559,27.947 234.988,28.083C234.4,28.224 234.199,28.41 235.102,28.179C236.006,27.948 238.791,27.559 241.392,27.421C242.875,27.343 243.502,27.266 243.767,27.215C244.852,27.617 245.536,27.831 245.536,27.831C246.999,28.013 246.096,27.498 246.096,27.498C245.47,27.266 244.868,27.035 244.288,26.806C244.205,26.571 244.065,26.186 243.839,25.6C243.405,24.475 243.254,24.226 243.88,22.061C244.506,19.896 243.92,19.333 243.92,19.333C243.333,18.498 243.603,19.406 243.603,19.406C243.809,20.33 243.872,20.584 243.263,22.094C242.653,23.604 242.574,24.096 242.803,25.204C242.937,25.851 243.196,26.236 243.389,26.443C241.607,25.711 240.055,24.991 238.707,24.286C238.704,24.071 238.612,23.809 238.513,23.345C238.371,22.683 238.419,22.245 238.589,21.577C238.759,20.908 239.54,20.094 240.167,19.556C240.793,19.019 241.525,18.002 241.525,18.002C241.815,17.006 241.446,17.775 241.282,18.016C241.119,18.256 240.879,18.642 239.743,19.558C238.607,20.474 238.344,20.946 237.994,21.61C237.645,22.274 237.723,23.043 237.773,23.426C237.794,23.584 237.846,23.732 237.901,23.852C236.551,23.107 235.427,22.378 234.499,21.671C234.751,21.307 234.836,20.524 234.907,20.293C234.994,20.011 234.994,19.471 235.972,18.637C236.949,17.803 237.174,17.359 237.174,17.359C237.44,16.534 237.014,17.254 236.917,17.402C236.82,17.551 236.368,18.071 235.57,18.64C234.773,19.209 234.461,19.935 234.277,20.366C234.167,20.624 234.065,21.01 234,21.278C232.124,19.747 231.154,18.316 230.766,17.021C231.622,15.854 234.263,13.985 234.263,13.985C235.568,13.12 234.004,14.021 234.004,14.021C232.255,15.093 231.11,16.107 230.648,16.545Z" style="fill:#38A169;"/>
    </g>
</svg>
